<svg xmlns="http://www.w3.org/2000/svg" version="1.1" xmlns:xlink="http://www.w3.org/1999/xlink" xmlns:svgjs="http://svgjs.dev/svgjs" width="1000" height="204" viewBox="0 0 1000 204"><g transform="matrix(1,0,0,1,-0.6060606060606233,0.4717991709302254)"><svg viewBox="0 0 396 81" data-background-color="#ffffff" preserveAspectRatio="xMidYMid meet" height="204" width="1000" xmlns="http://www.w3.org/2000/svg" xmlns:xlink="http://www.w3.org/1999/xlink"><defs></defs><g id="tight-bounds" transform="matrix(1,0,0,1,0.2400000000000091,-0.18733202375170777)"><svg viewBox="0 0 395.52 81.37466063348415" height="81.37466063348415" width="395.52"><g><svg viewBox="0 0 395.52 81.37466063348415" height="81.37466063348415" width="395.52"><g><svg viewBox="0 0 395.52 81.37466063348415" height="81.37466063348415" width="395.52"><g><svg viewBox="0 0 395.52 81.37466063348415" height="81.37466063348415" width="395.52"><g><svg viewBox="0 0 395.52 81.37466063348415" height="81.37466063348415" width="395.52"><g transform="matrix(1,0,0,1,0,0)"><svg width="395.52" viewBox="-0.550000011920929 -35.52000045776367 176.79000854492188 36.369998931884766" height="81.37466063348415" data-palette-color="#2257bf"><path d="M21.83 0L20-7.48 9.85-7.48 8.03 0-0.55 0 10.05-34.65 20-34.65 30.6 0 21.83 0ZM14.9-28.75L11.15-13.43 18.65-13.43 14.9-28.75ZM57.4 0L47.45 0 38.32-27.88Q38.5-26.75 38.71-25.16 38.92-23.58 39.12-21.64 39.32-19.7 39.45-17.53 39.57-15.35 39.57-13.08L39.57-13.08 39.57 0 32.6 0 32.6-34.65 42.82-34.65 51.67-6.93Q51.4-8.5 51.11-10.69 50.82-12.88 50.62-15.58 50.42-18.28 50.42-21.38L50.42-21.38 50.42-34.65 57.4-34.65 57.4 0ZM88.4-10.13L88.4-10.13Q88.4-6.9 86.71-4.42 85.02-1.95 81.87-0.55 78.72 0.85 74.3 0.85L74.3 0.85Q69.4 0.85 66.08-0.59 62.77-2.02 60.6-4.15L60.6-4.15 64.75-8.75Q66.67-7.08 69-6.16 71.32-5.25 74.09-5.25L74.09-5.25Q75.82-5.25 77.12-5.75 78.42-6.25 79.15-7.2 79.87-8.15 79.87-9.5L79.87-9.5Q79.87-10.78 79.3-11.65 78.72-12.53 77.36-13.23 76-13.93 73.57-14.65L73.57-14.65Q69.52-15.9 67.06-17.4 64.59-18.9 63.48-20.88 62.37-22.85 62.37-25.48L62.37-25.48Q62.37-28.65 64.13-30.9 65.9-33.15 68.87-34.34 71.84-35.52 75.42-35.52L75.42-35.52Q79.45-35.52 82.52-34.36 85.59-33.2 87.84-31.05L87.84-31.05 83.97-26.6Q82.22-28.08 80.2-28.79 78.17-29.5 76.07-29.5L76.07-29.5Q74.52-29.5 73.34-29.11 72.17-28.73 71.52-27.98 70.87-27.23 70.87-26.1L70.87-26.1Q70.87-25 71.5-24.25 72.12-23.5 73.67-22.84 75.22-22.18 77.97-21.3L77.97-21.3Q81.25-20.3 83.58-18.91 85.92-17.53 87.16-15.43 88.4-13.33 88.4-10.13ZM111.82 0L109.99-7.48 99.84-7.48 98.02 0 89.44 0 100.04-34.65 109.99-34.65 120.59 0 111.82 0ZM104.89-28.75L101.14-13.43 108.64-13.43 104.89-28.75ZM148.39-10.13L148.39-10.13Q148.39-6.9 146.7-4.42 145.02-1.95 141.87-0.55 138.72 0.85 134.29 0.85L134.29 0.85Q129.39 0.85 126.08-0.59 122.77-2.02 120.59-4.15L120.59-4.15 124.74-8.75Q126.67-7.08 128.99-6.16 131.31-5.25 134.09-5.25L134.09-5.25Q135.81-5.25 137.12-5.75 138.42-6.25 139.14-7.2 139.87-8.15 139.87-9.5L139.87-9.5Q139.87-10.78 139.29-11.65 138.72-12.53 137.35-13.23 135.99-13.93 133.56-14.65L133.56-14.65Q129.52-15.9 127.05-17.4 124.59-18.9 123.48-20.88 122.37-22.85 122.37-25.48L122.37-25.48Q122.37-28.65 124.13-30.9 125.89-33.15 128.87-34.34 131.84-35.52 135.42-35.52L135.42-35.52Q139.44-35.52 142.52-34.36 145.59-33.2 147.84-31.05L147.84-31.05 143.97-26.6Q142.22-28.08 140.19-28.79 138.17-29.5 136.06-29.5L136.06-29.5Q134.52-29.5 133.34-29.11 132.17-28.73 131.52-27.98 130.87-27.23 130.87-26.1L130.87-26.1Q130.87-25 131.49-24.25 132.12-23.5 133.67-22.84 135.22-22.18 137.97-21.3L137.97-21.3Q141.24-20.3 143.58-18.91 145.92-17.53 147.15-15.43 148.39-13.33 148.39-10.13ZM153.74-34.65L176.24-34.65 176.24-28.65 169.09-28.65 169.09-6.03 176.24-6.03 176.24 0 153.74 0 153.74-6.03 160.89-6.03 160.89-28.65 153.74-28.65 153.74-34.65Z" opacity="1" transform="matrix(1,0,0,1,0,0)" fill="#2257bf" class="undefined-text-0" data-fill-palette-color="primary" id="text-0"></path></svg></g></svg></g></svg></g></svg></g></svg></g></svg><rect width="395.52" height="81.37466063348415" fill="none" stroke="none" visibility="hidden"></rect></g></svg></g></svg>